#N canvas 586 72 413 406 10;
#X obj 154 278 osc~ 440;
#X obj 110 308 *~;
#X obj 110 352 dac~;
#X obj 80 279 vline~;
#X msg 80 258 1 \, 0 250;
#X obj 110 330 *~ 0.25;
#X msg 93 64 tempo \$1;
#X msg 156 64 resolution \$1;
#X msg 253 64 reset 0 \$1;
#X obj 199 255 f 440;
#X obj 119 113 abl_link~ 1 0 4 140;
#X obj 154 255 f 880;
#X obj 154 211 select 0;
#X obj 154 234 bng 15 250 50 0 empty empty empty 17 7 0 10 -262144
-1 -1;
#X obj 199 233 bng 15 250 50 0 empty empty empty 17 7 0 10 -262144
-1 -1;
#X msg 18 65 connect \$1;
#X obj 259 250 print num_peers;
#X obj 259 228 r #abl_link_num_peers;
#X obj 120 190 t b f;
#X obj 93 41 r tempo;
#X obj 156 41 r resolution;
#X obj 253 41 r quantum;
#X obj 18 40 r connect;
#X obj 291 144 s tempoOut;
#X msg 327 62 offset \$1;
#X obj 327 41 r offset;
#X obj 80 141 s step;
#X obj 136 163 s phase;
#X obj 204 163 s beatTime;
#N canvas 520 184 114 148 filter 0;
#X obj 6 5 inlet;
#X obj 6 25 expr $f1 * 10;
#X obj 6 65 expr $f1 / 10;
#X obj 6 45 int;
#X obj 6 85 change;
#X obj 6 107 outlet;
#X connect 0 0 1 0;
#X connect 1 0 3 0;
#X connect 2 0 4 0;
#X connect 3 0 2 0;
#X connect 4 0 5 0;
#X restore 136 142 pd filter;
#N canvas 501 198 114 148 filter 0;
#X obj 6 5 inlet;
#X obj 6 25 expr $f1 * 10;
#X obj 6 65 expr $f1 / 10;
#X obj 6 45 int;
#X obj 6 85 change;
#X obj 6 107 outlet;
#X connect 0 0 1 0;
#X connect 1 0 3 0;
#X connect 2 0 4 0;
#X connect 3 0 2 0;
#X connect 4 0 5 0;
#X restore 204 142 pd filter;
#X connect 0 0 1 1;
#X connect 1 0 5 0;
#X connect 3 0 1 0;
#X connect 4 0 3 0;
#X connect 4 0 3 0;
#X connect 5 0 2 0;
#X connect 5 0 2 1;
#X connect 6 0 10 0;
#X connect 7 0 10 0;
#X connect 8 0 10 0;
#X connect 9 0 0 0;
#X connect 10 0 18 0;
#X connect 10 0 26 0;
#X connect 10 1 29 0;
#X connect 10 2 30 0;
#X connect 10 3 23 0;
#X connect 11 0 0 0;
#X connect 12 0 13 0;
#X connect 12 1 14 0;
#X connect 13 0 11 0;
#X connect 14 0 9 0;
#X connect 15 0 10 0;
#X connect 17 0 16 0;
#X connect 18 0 4 0;
#X connect 18 1 12 0;
#X connect 19 0 6 0;
#X connect 20 0 7 0;
#X connect 21 0 8 0;
#X connect 22 0 15 0;
#X connect 24 0 10 0;
#X connect 25 0 24 0;
#X connect 29 0 27 0;
#X connect 30 0 28 0;
